<svg width="156" height="28" viewBox="0 0 156 28" fill="none" xmlns="http://www.w3.org/2000/svg">
<g filter="url(#filter0_dd_37_47)">
<path d="M11.4115 14.5H4.91148V12.78L6.65148 11.98V2.74L4.91148 1.94V0.219999H11.4115V1.94L9.67148 2.74V11.98L11.4115 12.78V14.5ZM19.8049 3.38C20.9783 3.38 21.9183 3.7 22.6249 4.34C23.3316 4.96667 23.6849 5.98 23.6849 7.38V14.5H20.7049V8.12C20.7049 7.33333 20.5649 6.74667 20.2849 6.36C20.0049 5.96 19.5583 5.76 18.9449 5.76C18.0383 5.76 17.4183 6.07333 17.0849 6.7C16.7516 7.31333 16.5849 8.2 16.5849 9.36V14.5H13.6049V3.58H15.8849L16.2849 4.98H16.4449C16.6849 4.60667 16.9783 4.30667 17.3249 4.08C17.6716 3.84 18.0583 3.66667 18.4849 3.56C18.9116 3.44 19.3516 3.38 19.8049 3.38ZM32.9495 3.38C34.1228 3.38 35.0628 3.7 35.7695 4.34C36.4761 4.96667 36.8295 5.98 36.8295 7.38V14.5H33.8495V8.12C33.8495 7.33333 33.7095 6.74667 33.4295 6.36C33.1495 5.96 32.7028 5.76 32.0895 5.76C31.1828 5.76 30.5628 6.07333 30.2295 6.7C29.8961 7.31333 29.7295 8.2 29.7295 9.36V14.5H26.7495V3.58H29.0295L29.4295 4.98H29.5895C29.8295 4.60667 30.1228 4.30667 30.4695 4.08C30.8161 3.84 31.2028 3.66667 31.6295 3.56C32.0561 3.44 32.4961 3.38 32.9495 3.38ZM49.814 9.02C49.814 9.92667 49.6873 10.7333 49.434 11.44C49.194 12.1467 48.8407 12.7467 48.374 13.24C47.9207 13.72 47.3673 14.0867 46.714 14.34C46.0607 14.58 45.3207 14.7 44.494 14.7C43.734 14.7 43.0273 14.58 42.374 14.34C41.734 14.0867 41.1807 13.72 40.714 13.24C40.2473 12.7467 39.8807 12.1467 39.614 11.44C39.3607 10.7333 39.234 9.92667 39.234 9.02C39.234 7.80667 39.4473 6.78667 39.874 5.96C40.3007 5.12 40.914 4.48 41.714 4.04C42.514 3.6 43.4607 3.38 44.554 3.38C45.5807 3.38 46.4873 3.6 47.274 4.04C48.0607 4.48 48.6807 5.12 49.134 5.96C49.5873 6.78667 49.814 7.80667 49.814 9.02ZM42.274 9.02C42.274 9.74 42.3473 10.3467 42.494 10.84C42.654 11.32 42.9007 11.6867 43.234 11.94C43.5673 12.18 44.0007 12.3 44.534 12.3C45.0673 12.3 45.494 12.18 45.814 11.94C46.1473 11.6867 46.3873 11.32 46.534 10.84C46.694 10.3467 46.774 9.74 46.774 9.02C46.774 8.3 46.694 7.7 46.534 7.22C46.3873 6.74 46.1473 6.38 45.814 6.14C45.4807 5.9 45.0473 5.78 44.514 5.78C43.7273 5.78 43.154 6.05333 42.794 6.6C42.4473 7.13333 42.274 7.94 42.274 9.02ZM59.8968 11.26C59.8968 11.9933 59.7235 12.62 59.3768 13.14C59.0301 13.6467 58.5101 14.0333 57.8168 14.3C57.1235 14.5667 56.2635 14.7 55.2368 14.7C54.4768 14.7 53.8235 14.6467 53.2768 14.54C52.7301 14.4467 52.1835 14.2867 51.6368 14.06V11.6C52.2235 11.8667 52.8568 12.0867 53.5368 12.26C54.2168 12.4333 54.8168 12.52 55.3368 12.52C55.9235 12.52 56.3368 12.4333 56.5768 12.26C56.8301 12.0867 56.9568 11.86 56.9568 11.58C56.9568 11.3933 56.9035 11.2267 56.7968 11.08C56.7035 10.9333 56.4901 10.7667 56.1568 10.58C55.8235 10.3933 55.3035 10.1533 54.5968 9.86C53.9168 9.56667 53.3568 9.28 52.9168 9C52.4768 8.70667 52.1501 8.36 51.9368 7.96C51.7235 7.54667 51.6168 7.03333 51.6168 6.42C51.6168 5.40667 52.0101 4.64667 52.7968 4.14C53.5835 3.63333 54.6301 3.38 55.9368 3.38C56.6168 3.38 57.2635 3.44667 57.8768 3.58C58.4901 3.71333 59.1235 3.93333 59.7768 4.24L58.8768 6.38C58.5168 6.22 58.1701 6.08 57.8368 5.96C57.5035 5.84 57.1768 5.74667 56.8568 5.68C56.5501 5.61333 56.2301 5.58 55.8968 5.58C55.4568 5.58 55.1235 5.64 54.8968 5.76C54.6835 5.88 54.5768 6.06 54.5768 6.3C54.5768 6.47333 54.6301 6.63333 54.7368 6.78C54.8568 6.91333 55.0768 7.06 55.3968 7.22C55.7301 7.38 56.2168 7.59333 56.8568 7.86C57.4835 8.11333 58.0235 8.38 58.4768 8.66C58.9301 8.92667 59.2768 9.26667 59.5168 9.68C59.7701 10.08 59.8968 10.6067 59.8968 11.26ZM72.1382 9.02C72.1382 9.92667 72.0115 10.7333 71.7582 11.44C71.5182 12.1467 71.1649 12.7467 70.6982 13.24C70.2449 13.72 69.6915 14.0867 69.0382 14.34C68.3849 14.58 67.6449 14.7 66.8182 14.7C66.0582 14.7 65.3515 14.58 64.6982 14.34C64.0582 14.0867 63.5049 13.72 63.0382 13.24C62.5715 12.7467 62.2049 12.1467 61.9382 11.44C61.6849 10.7333 61.5582 9.92667 61.5582 9.02C61.5582 7.80667 61.7715 6.78667 62.1982 5.96C62.6249 5.12 63.2382 4.48 64.0382 4.04C64.8382 3.6 65.7849 3.38 66.8782 3.38C67.9049 3.38 68.8115 3.6 69.5982 4.04C70.3849 4.48 71.0049 5.12 71.4582 5.96C71.9115 6.78667 72.1382 7.80667 72.1382 9.02ZM64.5982 9.02C64.5982 9.74 64.6715 10.3467 64.8182 10.84C64.9782 11.32 65.2249 11.6867 65.5582 11.94C65.8915 12.18 66.3249 12.3 66.8582 12.3C67.3915 12.3 67.8182 12.18 68.1382 11.94C68.4715 11.6867 68.7115 11.32 68.8582 10.84C69.0182 10.3467 69.0982 9.74 69.0982 9.02C69.0982 8.3 69.0182 7.7 68.8582 7.22C68.7115 6.74 68.4715 6.38 68.1382 6.14C67.8049 5.9 67.3715 5.78 66.8382 5.78C66.0515 5.78 65.4782 6.05333 65.1182 6.6C64.7715 7.13333 64.5982 7.94 64.5982 9.02ZM80.801 3.38C81.9743 3.38 82.9143 3.7 83.621 4.34C84.3277 4.96667 84.681 5.98 84.681 7.38V14.5H81.701V8.12C81.701 7.33333 81.561 6.74667 81.281 6.36C81.001 5.96 80.5543 5.76 79.941 5.76C79.0343 5.76 78.4143 6.07333 78.081 6.7C77.7477 7.31333 77.581 8.2 77.581 9.36V14.5H74.601V3.58H76.881L77.281 4.98H77.441C77.681 4.60667 77.9743 4.30667 78.321 4.08C78.6677 3.84 79.0543 3.66667 79.481 3.56C79.9077 3.44 80.3477 3.38 80.801 3.38ZM98.6009 6.48H104.261V13.88C103.514 14.1333 102.734 14.3333 101.921 14.48C101.121 14.6267 100.208 14.7 99.1809 14.7C97.7675 14.7 96.5609 14.42 95.5609 13.86C94.5742 13.3 93.8209 12.4733 93.3009 11.38C92.7942 10.2867 92.5409 8.94 92.5409 7.34C92.5409 5.84667 92.8275 4.55333 93.4009 3.46C93.9875 2.36667 94.8342 1.52 95.9409 0.92C97.0475 0.319999 98.4009 0.0199993 100.001 0.0199993C100.761 0.0199993 101.508 0.0999994 102.241 0.26C102.974 0.419999 103.641 0.633333 104.241 0.9L103.241 3.32C102.801 3.09333 102.301 2.90667 101.741 2.76C101.181 2.61333 100.594 2.54 99.9809 2.54C99.1009 2.54 98.3342 2.74 97.6809 3.14C97.0409 3.54 96.5409 4.10667 96.1809 4.84C95.8342 5.56 95.6609 6.41333 95.6609 7.4C95.6609 8.33333 95.7875 9.16 96.0409 9.88C96.2942 10.6 96.6942 11.1667 97.2409 11.58C97.7875 11.98 98.5009 12.18 99.3809 12.18C99.6742 12.18 99.9275 12.1733 100.141 12.16C100.368 12.1333 100.574 12.1067 100.761 12.08C100.948 12.04 101.128 12.0067 101.301 11.98V9H98.6009V6.48ZM113.514 3.38C113.66 3.38 113.834 3.38667 114.034 3.4C114.234 3.41333 114.394 3.43333 114.514 3.46L114.294 6.26C114.2 6.23333 114.06 6.21333 113.874 6.2C113.7 6.17333 113.547 6.16 113.414 6.16C113.027 6.16 112.654 6.21333 112.294 6.32C111.934 6.41333 111.607 6.56667 111.314 6.78C111.034 6.99333 110.807 7.28 110.634 7.64C110.474 7.98667 110.394 8.42 110.394 8.94V14.5H107.414V3.58H109.674L110.114 5.42H110.254C110.467 5.04667 110.734 4.70667 111.054 4.4C111.374 4.09333 111.74 3.84667 112.154 3.66C112.58 3.47333 113.034 3.38 113.514 3.38ZM126.025 9.02C126.025 9.92667 125.898 10.7333 125.645 11.44C125.405 12.1467 125.052 12.7467 124.585 13.24C124.132 13.72 123.578 14.0867 122.925 14.34C122.272 14.58 121.532 14.7 120.705 14.7C119.945 14.7 119.238 14.58 118.585 14.34C117.945 14.0867 117.392 13.72 116.925 13.24C116.458 12.7467 116.092 12.1467 115.825 11.44C115.572 10.7333 115.445 9.92667 115.445 9.02C115.445 7.80667 115.658 6.78667 116.085 5.96C116.512 5.12 117.125 4.48 117.925 4.04C118.725 3.6 119.672 3.38 120.765 3.38C121.792 3.38 122.698 3.6 123.485 4.04C124.272 4.48 124.892 5.12 125.345 5.96C125.798 6.78667 126.025 7.80667 126.025 9.02ZM118.485 9.02C118.485 9.74 118.558 10.3467 118.705 10.84C118.865 11.32 119.112 11.6867 119.445 11.94C119.778 12.18 120.212 12.3 120.745 12.3C121.278 12.3 121.705 12.18 122.025 11.94C122.358 11.6867 122.598 11.32 122.745 10.84C122.905 10.3467 122.985 9.74 122.985 9.02C122.985 8.3 122.905 7.7 122.745 7.22C122.598 6.74 122.358 6.38 122.025 6.14C121.692 5.9 121.258 5.78 120.725 5.78C119.938 5.78 119.365 6.05333 119.005 6.6C118.658 7.13333 118.485 7.94 118.485 9.02ZM138.508 3.58V14.5H136.228L135.828 13.1H135.668C135.441 13.4733 135.148 13.78 134.788 14.02C134.441 14.2467 134.054 14.4133 133.628 14.52C133.201 14.64 132.761 14.7 132.308 14.7C131.534 14.7 130.854 14.56 130.268 14.28C129.681 14 129.228 13.5667 128.908 12.98C128.588 12.3933 128.428 11.6333 128.428 10.7V3.58H131.408V9.96C131.408 10.7333 131.548 11.32 131.828 11.72C132.108 12.12 132.554 12.32 133.168 12.32C133.781 12.32 134.254 12.18 134.588 11.9C134.934 11.62 135.174 11.2133 135.308 10.68C135.454 10.1467 135.528 9.49333 135.528 8.72V3.58H138.508ZM147.712 3.38C148.939 3.38 149.932 3.86 150.692 4.82C151.452 5.76667 151.832 7.16667 151.832 9.02C151.832 10.26 151.652 11.3067 151.292 12.16C150.932 13 150.439 13.6333 149.812 14.06C149.186 14.4867 148.459 14.7 147.632 14.7C147.112 14.7 146.659 14.6333 146.272 14.5C145.899 14.3667 145.579 14.1933 145.312 13.98C145.046 13.7667 144.812 13.54 144.612 13.3H144.452C144.506 13.5533 144.546 13.82 144.572 14.1C144.599 14.3667 144.612 14.6333 144.612 14.9V19.3H141.632V3.58H144.052L144.472 5H144.612C144.812 4.70667 145.052 4.44 145.332 4.2C145.612 3.94667 145.946 3.74667 146.332 3.6C146.732 3.45333 147.192 3.38 147.712 3.38ZM146.752 5.76C146.232 5.76 145.819 5.86667 145.512 6.08C145.206 6.29333 144.979 6.62 144.832 7.06C144.699 7.48667 144.626 8.02667 144.612 8.68V9C144.612 9.70667 144.679 10.3067 144.812 10.8C144.946 11.28 145.172 11.6467 145.492 11.9C145.812 12.1533 146.246 12.28 146.792 12.28C147.246 12.28 147.619 12.1533 147.912 11.9C148.206 11.6467 148.426 11.2733 148.572 10.78C148.719 10.2867 148.792 9.68667 148.792 8.98C148.792 7.91333 148.626 7.11333 148.292 6.58C147.972 6.03333 147.459 5.76 146.752 5.76Z" fill="#365FA3"/>
</g>
<defs>
<filter id="filter0_dd_37_47" x="0.911484" y="0.0200195" width="154.921" height="27.28" filterUnits="userSpaceOnUse" color-interpolation-filters="sRGB">
<feFlood flood-opacity="0" result="BackgroundImageFix"/>
<feColorMatrix in="SourceAlpha" type="matrix" values="0 0 0 0 0 0 0 0 0 0 0 0 0 0 0 0 0 0 127 0" result="hardAlpha"/>
<feOffset dy="4"/>
<feGaussianBlur stdDeviation="2"/>
<feComposite in2="hardAlpha" operator="out"/>
<feColorMatrix type="matrix" values="0 0 0 0 0 0 0 0 0 0 0 0 0 0 0 0 0 0 0.25 0"/>
<feBlend mode="normal" in2="BackgroundImageFix" result="effect1_dropShadow_37_47"/>
<feColorMatrix in="SourceAlpha" type="matrix" values="0 0 0 0 0 0 0 0 0 0 0 0 0 0 0 0 0 0 127 0" result="hardAlpha"/>
<feOffset dy="4"/>
<feGaussianBlur stdDeviation="2"/>
<feComposite in2="hardAlpha" operator="out"/>
<feColorMatrix type="matrix" values="0 0 0 0 0 0 0 0 0 0 0 0 0 0 0 0 0 0 0.25 0"/>
<feBlend mode="normal" in2="effect1_dropShadow_37_47" result="effect2_dropShadow_37_47"/>
<feBlend mode="normal" in="SourceGraphic" in2="effect2_dropShadow_37_47" result="shape"/>
</filter>
</defs>
</svg>
